<svg xmlns="http://www.w3.org/2000/svg" viewBox="0 0 512 512" style="enable-background:new 0 0 512 512" xml:space="preserve"><path style="fill:#5b5d6e" d="M461.228 80.701H50.772c-14.168 0-25.653 11.485-25.653 25.653v282.188h461.762V106.355c0-14.168-11.485-25.654-25.653-25.654z"/><path style="fill:#00c3ff" d="M59.324 114.906h393.353v239.432H59.324z"/><path style="fill:#e4eaf8" d="M486.881 431.299H25.119c-9.446 0-17.102-7.656-17.102-17.102v-25.653h495.967v25.653c-.001 9.445-7.657 17.102-17.103 17.102z"/><path d="M384.267 122.923h17.102a8.017 8.017 0 0 0 8.017-8.017 8.017 8.017 0 0 0-8.017-8.017h-17.102a8.018 8.018 0 0 0 0 16.034zM59.324 311.048a8.017 8.017 0 0 0 8.017-8.017V122.923h282.722a8.017 8.017 0 0 0 8.017-8.017 8.017 8.017 0 0 0-8.017-8.017H59.324a8.017 8.017 0 0 0-8.017 8.017v188.125a8.016 8.016 0 0 0 8.017 8.017zM452.676 106.889h-17.102a8.017 8.017 0 0 0-8.017 8.017 8.017 8.017 0 0 0 8.017 8.017h9.086v223.399H67.34v-9.086c0-4.427-3.588-8.017-8.017-8.017s-8.017 3.589-8.017 8.017v17.102a8.017 8.017 0 0 0 8.017 8.017h393.353a8.017 8.017 0 0 0 8.017-8.017V114.906a8.017 8.017 0 0 0-8.017-8.017z"/><path d="M503.983 380.526h-9.086V106.355c0-18.566-15.105-33.67-33.67-33.67H50.772c-18.566 0-33.67 15.105-33.67 33.67v274.171H8.017A8.017 8.017 0 0 0 0 388.543v25.653c0 13.851 11.268 25.119 25.119 25.119h461.762c13.851 0 25.119-11.268 25.119-25.119v-25.653a8.016 8.016 0 0 0-8.017-8.017zM33.136 106.355c0-9.725 7.912-17.637 17.637-17.637h410.455c9.725 0 17.637 7.912 17.637 17.637v274.171H33.136V106.355zm462.831 307.841c0 5.01-4.076 9.086-9.086 9.086H25.119c-5.01 0-9.086-4.076-9.086-9.086V396.56h197.772c-.012.177-.027.354-.027.534a8.017 8.017 0 0 0 8.017 8.017h68.409a8.017 8.017 0 0 0 8.017-8.017c0-.181-.015-.357-.027-.534h197.772v17.636z"/><path d="M170.489 276.843a8.017 8.017 0 0 0 8.017-8.017v-68.409a8.017 8.017 0 0 0-8.017-8.017 8.017 8.017 0 0 0-8.017 8.017v26.188h-43.825v-26.188a8.017 8.017 0 0 0-8.017-8.017 8.017 8.017 0 0 0-8.017 8.017v68.409a8.017 8.017 0 0 0 8.017 8.017 8.017 8.017 0 0 0 8.017-8.017v-26.188h43.825v26.188a8.016 8.016 0 0 0 8.017 8.017zM332.96 276.843a8.017 8.017 0 0 0 8.017-8.017v-68.409a8.016 8.016 0 0 0-15.187-3.585l-22.759 45.517-22.759-45.517a8.016 8.016 0 0 0-15.187 3.585v68.409c0 4.427 3.588 8.017 8.017 8.017s8.017-3.589 8.017-8.017v-34.449l10.467 20.932a8.017 8.017 0 0 0 7.17 4.432h8.551a8.015 8.015 0 0 0 7.17-4.432l10.467-20.932v34.449a8.016 8.016 0 0 0 8.016 8.017zM221.795 276.843a8.017 8.017 0 0 0 8.017-8.017v-60.392h17.637c4.428 0 8.017-3.589 8.017-8.017s-3.588-8.017-8.017-8.017h-51.307c-4.428 0-8.017 3.589-8.017 8.017s3.588 8.017 8.017 8.017h17.637v60.392a8.016 8.016 0 0 0 8.016 8.017zM367.165 276.843h42.756a8.017 8.017 0 0 0 8.017-8.017 8.017 8.017 0 0 0-8.017-8.017h-34.739v-60.392a8.017 8.017 0 0 0-8.017-8.017 8.017 8.017 0 0 0-8.017 8.017v68.409a8.017 8.017 0 0 0 8.017 8.017z"/></svg>